<?xml version="1.0" encoding="UTF-8" standalone="no"?>
<svg
   width="240"
   height="177"
   viewBox="0 0 240 177"
   fill="none"
   version="1.1"
   id="svg56"
   sodipodi:docname="widget1.svg"
   inkscape:version="1.2.2 (b0a8486541, 2022-12-01)"
   xmlns:inkscape="http://www.inkscape.org/namespaces/inkscape"
   xmlns:sodipodi="http://sodipodi.sourceforge.net/DTD/sodipodi-0.dtd"
   xmlns="http://www.w3.org/2000/svg"
   xmlns:svg="http://www.w3.org/2000/svg">
  <sodipodi:namedview
     id="namedview58"
     pagecolor="#ffffff"
     bordercolor="#000000"
     borderopacity="0.25"
     inkscape:showpageshadow="2"
     inkscape:pageopacity="0.0"
     inkscape:pagecheckerboard="0"
     inkscape:deskcolor="#d1d1d1"
     showgrid="false"
     inkscape:zoom="4.3728814"
     inkscape:cx="118.91473"
     inkscape:cy="34.645348"
     inkscape:window-width="1396"
     inkscape:window-height="700"
     inkscape:window-x="0"
     inkscape:window-y="0"
     inkscape:window-maximized="1"
     inkscape:current-layer="svg56" />
  <rect
     width="240"
     height="177"
     rx="12"
     fill="#E1E2F6"
     id="rect2" />
  <text
     xml:space="preserve"
     style="font-style:normal;font-variant:normal;font-weight:bold;font-stretch:normal;font-size:14.6667px;font-family:Cantarell;-inkscape-font-specification:'Cantarell Bold';fill:#2b0000"
     x="18.24155"
     y="106.9942"
     id="text430"><tspan
       sodipodi:role="line"
       id="tspan428"
       x="18.24155"
       y="106.9942"
       style="font-style:normal;font-variant:normal;font-weight:bold;font-stretch:normal;font-size:14.6667px;font-family:Cantarell;-inkscape-font-specification:'Cantarell Bold';fill:#24221c">Conversational Forms</tspan></text>
  <circle
     cx="43"
     cy="49"
     r="25"
     fill="white"
     id="circle39" />
  <rect
     x="32"
     y="38"
     width="22"
     height="22"
     rx="6"
     fill="#EDEDFB"
     id="rect41" />
  <path
     d="M32 44C32 40.6863 34.6863 38 38 38H48C51.3137 38 54 40.6863 54 44V45H32V44Z"
     fill="#353297"
     id="path43" />
  <path
     d="M40 49C40 49 37 50.9231 37 51.3077C37 51.6923 40 54 40 54"
     stroke="#353297"
     stroke-linecap="round"
     id="path45" />
  <path
     d="M46 49C46 49 49 50.9231 49 51.3077C49 51.6923 46 54 46 54"
     stroke="#353297"
     stroke-linecap="round"
     id="path47" />
  <defs
     id="defs54">
    <clipPath
       id="clip0_1907_2202">
      <rect
         width="16"
         height="16"
         fill="white"
         transform="translate(173 138)"
         id="rect51" />
    </clipPath>
  </defs>
</svg>
